<?xml version="1.0" standalone="no"?><!DOCTYPE svg PUBLIC "-//W3C//DTD SVG 1.1//EN" "http://www.w3.org/Graphics/SVG/1.1/DTD/svg11.dtd"><svg t="1762948402895" class="icon" viewBox="0 0 1024 1024" version="1.1" xmlns="http://www.w3.org/2000/svg" p-id="3975" xmlns:xlink="http://www.w3.org/1999/xlink" width="200" height="200"><path d="M515.1 753.7c-184.6 0-341.4-117.2-418.5-187-18.3-16.6-28.8-40.3-28.8-65s10.5-48.3 28.8-65c77.1-69.8 233.9-187 418.5-187 184.4 0 341.1 117 418.2 186.7 18.4 16.7 29 40.5 29 65.3s-10.6 48.6-29 65.3c-77 69.7-233.7 186.7-418.2 186.7z m0-436.8c-162 0-303.5 106.3-373.4 169.6-5.9 5.3-6.8 11.8-6.8 15.2s0.9 9.8 6.8 15.2C211.6 580.2 353 686.5 515 686.5c161.9 0 303.2-106.1 373.1-169.3 6-5.4 6.9-12 6.9-15.4s-0.9-10-6.9-15.4C818.3 423 677 316.9 515.1 316.9z" fill="#666666" p-id="3976"></path><path d="M515 636.1c-74.1 0-134.4-60.3-134.4-134.4S440.9 367.3 515 367.3s134.4 60.3 134.4 134.4S589.1 636.1 515 636.1z m0-201.6c-37.1 0-67.2 30.1-67.2 67.2s30.1 67.2 67.2 67.2 67.2-30.1 67.2-67.2-30.1-67.2-67.2-67.2z" fill="#666666" p-id="3977"></path><path d="M167.9 770.5c-10.8 0-21.5-5.2-28-15-10.3-15.4-6.1-36.3 9.3-46.6L821.1 261c15.4-10.3 36.3-6.1 46.6 9.3 10.3 15.4 6.1 36.3-9.3 46.6L186.5 764.8c-5.7 3.8-12.2 5.7-18.6 5.7z" fill="#FFFFFF" p-id="3978"></path><path d="M190.3 770.5c-10.8 0-21.5-5.2-28-15-10.3-15.4-6.1-36.3 9.3-46.6L843.5 261c15.4-10.3 36.3-6.1 46.6 9.3 10.3 15.4 6.1 36.3-9.3 46.6L208.9 764.8c-5.7 3.8-12.2 5.7-18.6 5.7z" fill="#666666" p-id="3979"></path></svg>